# xmcd CD database file
#
# Track frame offsets:
#	150
#	16280
#	29727
#	46080
#	58935
#	73085
#	86237
#	105225
#	114985
#	123822
#	136145
#	149267
#	162080
#	176652
#	196435
#	211407
#	224617
#	246747
#	258547
#	272177
#	286192
#	301020
#	315522
#	330367
#
# Disc length: 4570 seconds
#
# Revision: 2
# Processed by: cddbd v1.4PL0 Copyright (c) Steve Scherf et al.
# Submitted via: CDex 1.50beta10
#
DISCID=6611d818
DTITLE=Ray Charles - The Collection
DYEAR=1900
DGENRE=
TTITLE0=Your Cheating Heart
TTITLE1=You Are My Sunshine
TTITLE2=Georgia
TTITLE3=Unchain My Heart
TTITLE4=One Mint Julep
TTITLE5=Take These Chains From My Heart
TTITLE6=I Can't Stop Loving You
TTITLE7=Busted
TTITLE8=Hit The Road Jack
TTITLE9=Please Say You're Fooling
TTITLE10=Let's Go Get Stoned
TTITLE11=My Heart Cries For You
TTITLE12=Feel So Bad
TTITLE13=That Lucky Old Sun
TTITLE14=Smack Dab In The Middle
TTITLE15=Crying Time
TTITLE16=If It Wasn't For Bad Luck
TTITLE17=In The Heat Of The Night
TTITLE18=Eleanor Rigby
TTITLE19=Don't Change On Me
TTITLE20=Born To Lose
TTITLE21=No One
TTITLE22=Hard Hearted Hannah
TTITLE23=Yesterday
EXTD=
EXTT0=
EXTT1=
EXTT2=
EXTT3=
EXTT4=
EXTT5=
EXTT6=
EXTT7=
EXTT8=
EXTT9=
EXTT10=
EXTT11=
EXTT12=
EXTT13=
EXTT14=
EXTT15=
EXTT16=
EXTT17=
EXTT18=
EXTT19=
EXTT20=
EXTT21=
EXTT22=
EXTT23=
PLAYORDER=
